<?xml version="1.0" encoding="UTF-8"?>
<svg version="1.1" xmlns="http://www.w3.org/2000/svg" width="612" height="612">
<path d="M0 0 C201.96 0 403.92 0 612 0 C612 201.96 612 403.92 612 612 C410.04 612 208.08 612 0 612 C0 410.04 0 208.08 0 0 Z " fill="#FEFEFE" transform="translate(0,0)"/>
<path d="M0 0 C5.06361483 3.51434989 9.3907497 6.67993691 12.19921875 12.296875 C12.493125 12.87824219 12.78703125 13.45960937 13.08984375 14.05859375 C17.52209697 23.99087028 14.84072999 35.62372696 13.38671875 45.984375 C13.20312148 47.32688157 13.01969174 48.66941106 12.83642578 50.01196289 C11.90076171 56.78208576 10.88883474 63.52680154 9.57421875 70.234375 C8.15247276 77.53697938 7.18247945 84.92241972 6.19921875 92.296875 C31.60921875 92.296875 57.01921875 92.296875 83.19921875 92.296875 C84.18921875 84.706875 85.17921875 77.116875 86.19921875 69.296875 C86.97975825 64.30778394 87.77573239 59.33361245 88.63671875 54.359375 C90.52876677 43.38092574 90.52876677 43.38092574 92.19921875 32.3671875 C92.35849854 31.28687256 92.51777832 30.20655762 92.68188477 29.09350586 C92.97396894 27.09689182 93.24935812 25.09772404 93.50366211 23.09594727 C94.84859718 14.16625049 99.16801509 7.1547872 106.30859375 1.58203125 C114.28482656 -3.83982948 121.61395905 -4.74025447 131.19921875 -3.703125 C139.36565318 -1.98567152 145.16475569 2.75403196 150.19921875 9.296875 C159.74999673 24.70736907 152.68171555 46.62156067 149.82519531 63.47460938 C149.04954558 68.21079201 148.38059197 72.95776364 147.73974609 77.71386719 C147.00331643 82.59545789 146.10188854 87.44365168 145.19921875 92.296875 C145.90142044 92.28799255 146.60362213 92.27911011 147.32710266 92.2699585 C153.99001059 92.18934483 160.65277966 92.12867551 167.3160677 92.08962631 C170.74062962 92.06887469 174.16478392 92.04078997 177.58911133 91.99511719 C181.53852218 91.94277903 185.48777604 91.92382706 189.4375 91.90625 C190.64940506 91.88560486 191.86131012 91.86495972 193.10993958 91.84368896 C201.96063643 91.84138453 209.42818084 93.32822919 217.01171875 98.046875 C223.79714627 105.02617188 228.24329638 111.83428062 228.57421875 121.734375 C228.21522005 132.56416912 223.67411154 140.27368712 215.88671875 147.609375 C207.48080767 154.17993301 197.85812518 153.70334379 187.6640625 153.58984375 C186.17477346 153.58423806 184.68547883 153.57997257 183.19618225 153.57698059 C179.30482302 153.56560825 175.41380774 153.53620828 171.52258301 153.50286865 C167.54049327 153.47200211 163.55834715 153.45844007 159.57617188 153.44335938 C151.78369855 153.41132988 143.99150712 153.36022772 136.19921875 153.296875 C136.01086708 154.63056374 136.01086708 154.63056374 135.81871033 155.99119568 C134.78727264 163.25888437 133.72107946 170.51859432 132.578125 177.76953125 C132.27927481 179.679033 131.98044742 181.58853833 131.68164062 183.49804688 C131.22370245 186.41731147 130.76531426 189.33650447 130.30639648 192.25561523 C128.1597485 205.9212573 126.11992588 219.59759696 124.19921875 233.296875 C125.16673065 233.28799255 126.13424255 233.27911011 127.131073 233.2699585 C136.28133314 233.18861592 145.43151922 233.12878694 154.58205986 233.08962631 C159.28565501 233.06881604 163.98895658 233.04061934 168.69238281 232.99511719 C173.23764019 232.95142402 177.78261647 232.92768864 182.32806778 232.91736603 C184.05590358 232.91001655 185.78372525 232.89566536 187.51144028 232.87395477 C201.31579504 232.70750151 210.76972669 234.14793753 221.0625 243.98828125 C226.91143396 250.30769618 228.50680584 256.53496981 228.33984375 264.98046875 C227.82990333 273.38032069 224.41231008 279.77282946 219.19921875 286.296875 C212.0479826 292.53457998 203.38537441 294.76181796 194.12109375 294.63745117 C193.25185776 294.63788925 192.38262177 294.63832733 191.48704529 294.63877869 C188.64086705 294.63670438 185.79529288 294.61343804 182.94921875 294.58984375 C180.96525392 294.58424296 178.98128493 294.57997514 176.99731445 294.57698059 C171.79571925 294.5655699 166.59437852 294.53613536 161.3928833 294.50286865 C156.07706138 294.47208616 150.76119802 294.45845781 145.4453125 294.44335938 C135.0298366 294.41126193 124.6145489 294.36011148 114.19921875 294.296875 C114.10922356 295.36397705 114.10922356 295.36397705 114.01741028 296.45263672 C113.55082849 301.80903742 113.00294688 307.11074686 112.1484375 312.421875 C111.94661865 313.69264893 111.7447998 314.96342285 111.53686523 316.27270508 C111.32034365 317.61412637 111.10362377 318.95551566 110.88671875 320.296875 C110.43151041 323.13378435 109.97870535 325.97106993 109.52734375 328.80859375 C109.41410263 329.51924484 109.30086151 330.22989594 109.18418884 330.96208191 C108.44520954 335.6361768 107.76524281 340.31559491 107.12109375 345.00390625 C106.95391846 346.20466797 106.78674316 347.40542969 106.61450195 348.64257812 C106.30639101 350.87823241 106.00736164 353.11516623 105.71948242 355.35351562 C104.32587827 365.35141995 101.86486098 376.18411535 94.19921875 383.296875 C85.62233339 389.60022413 77.75931823 391.88213816 67.19921875 390.296875 C56.97861011 387.58500684 51.48582864 382.2234458 46.19921875 373.296875 C39.70193074 361.80758084 43.92954258 347.87021049 46.1171875 335.55859375 C47.32160451 328.74343339 48.2632332 321.90440784 49.15942383 315.04296875 C50.06926236 308.10469007 51.13403275 301.22058402 52.19921875 294.296875 C26.45921875 294.296875 0.71921875 294.296875 -25.80078125 294.296875 C-26.13078125 298.586875 -26.46078125 302.876875 -26.80078125 307.296875 C-27.1173184 309.8988559 -27.46242057 312.49772707 -27.8515625 315.08984375 C-27.99957306 316.08931534 -27.99957306 316.08931534 -28.15057373 317.10897827 C-28.4666563 319.23486655 -28.78942142 321.35965872 -29.11328125 323.484375 C-29.33866455 324.97710134 -29.56384069 326.46985896 -29.78881836 327.96264648 C-30.12999906 330.22460915 -30.47178637 332.48646911 -30.81581116 334.7480011 C-31.53523556 339.48670627 -32.2183397 344.22920779 -32.87890625 348.9765625 C-33.20702087 351.27083482 -33.53514525 353.56510574 -33.86328125 355.859375 C-34.06981323 357.40757935 -34.06981323 357.40757935 -34.28051758 358.98706055 C-35.20749814 365.31608214 -36.87936004 370.60621458 -39.80078125 376.296875 C-40.13078125 376.956875 -40.46078125 377.616875 -40.80078125 378.296875 C-41.46078125 378.296875 -42.12078125 378.296875 -42.80078125 378.296875 C-43.05601562 378.90402344 -43.31125 379.51117188 -43.57421875 380.13671875 C-46.42570977 385.15861218 -53.28618534 387.97646954 -58.609375 389.7890625 C-67.07230936 391.75017028 -74.17503503 390.13669421 -81.80078125 386.296875 C-82.85265625 385.78125 -83.90453125 385.265625 -84.98828125 384.734375 C-91.55082608 379.04683615 -96.1217703 370.89837034 -97.01171875 362.24609375 C-97.2656345 356.43532957 -96.30608953 350.93563209 -95.22216797 345.24267578 C-93.49959173 336.05364281 -92.23035676 326.79233497 -90.9178772 317.53759766 C-90.60942265 315.36320971 -90.29700439 313.18941598 -89.984375 311.015625 C-89.80447021 309.74654297 -89.62456543 308.47746094 -89.43920898 307.16992188 C-88.72455445 302.83444211 -87.79847807 298.57453136 -86.80078125 294.296875 C-87.52439346 294.30131622 -88.24800568 294.30575745 -88.99354553 294.31033325 C-95.83435042 294.35051429 -102.67513752 294.38091227 -109.51603031 294.40049934 C-113.03246687 294.410908 -116.54880539 294.42501339 -120.06518555 294.44775391 C-124.11377876 294.47377049 -128.16227001 294.4833719 -132.2109375 294.4921875 C-134.09257347 294.50767136 -134.09257347 294.50767136 -136.01222229 294.52346802 C-141.99300111 294.52423322 -147.1706854 294.39500227 -152.80078125 292.296875 C-152.80078125 291.636875 -152.80078125 290.976875 -152.80078125 290.296875 C-153.64640625 290.1525 -154.49203125 290.008125 -155.36328125 289.859375 C-161.93740606 286.87113645 -166.11852676 279.8534971 -168.80078125 273.296875 C-171.00544412 263.89969498 -170.19733001 255.89742294 -165.80078125 247.296875 C-165.14078125 246.306875 -164.48078125 245.316875 -163.80078125 244.296875 C-163.14078125 244.296875 -162.48078125 244.296875 -161.80078125 244.296875 C-161.54554688 243.69101562 -161.2903125 243.08515625 -161.02734375 242.4609375 C-159.65112628 240.03283407 -158.53158387 239.12665351 -156.17578125 237.671875 C-155.54414063 237.26710938 -154.9125 236.86234375 -154.26171875 236.4453125 C-145.94693678 232.56508092 -137.32486121 233.03529002 -128.36328125 233.1015625 C-126.87256053 233.10529853 -125.38183734 233.10814271 -123.89111328 233.11013794 C-119.99160837 233.11772797 -116.09225544 233.13733596 -112.19281006 233.1595459 C-108.20408178 233.18010478 -104.21532864 233.18916101 -100.2265625 233.19921875 C-92.41789991 233.22058683 -84.60936198 233.25466594 -76.80078125 233.296875 C-76.81691467 232.69033585 -76.8330481 232.08379669 -76.84967041 231.45887756 C-76.94218745 225.27727626 -76.41263447 219.44786892 -75.41015625 213.35546875 C-75.26427063 212.43008804 -75.11838501 211.50470734 -74.96807861 210.55128479 C-74.50283428 207.61111764 -74.02704243 204.67277542 -73.55078125 201.734375 C-73.24669264 199.82367949 -72.94330289 197.91287262 -72.640625 196.00195312 C-71.86940064 191.14475244 -71.08895497 186.28908393 -70.3059082 181.43377686 C-69.38807896 175.73394191 -68.47781265 170.03289607 -67.56640625 164.33203125 C-67.22561632 162.20189944 -66.88479885 160.07177203 -66.54394531 157.94165039 C-66.32837982 156.59436607 -66.32837982 156.59436607 -66.10845947 155.21986389 C-65.95615875 154.26798439 -65.95615875 154.26798439 -65.80078125 153.296875 C-67.21779579 153.30353683 -67.21779579 153.30353683 -68.66343689 153.31033325 C-77.59331754 153.35098672 -86.52317926 153.38091078 -95.45313168 153.40049934 C-100.04341953 153.41090876 -104.6336323 153.42501573 -109.22387695 153.44775391 C-113.65888259 153.46958405 -118.09381629 153.48146498 -122.52887154 153.48662949 C-124.21563409 153.49030705 -125.90239299 153.49748816 -127.58912468 153.50833511 C-141.38679884 153.59348547 -151.29535381 153.23981927 -161.75 143.4765625 C-167.70153147 137.31292195 -169.84673051 130.72388413 -170.17578125 122.234375 C-169.88831401 113.91089186 -167.01023455 106.23529711 -160.859375 100.48046875 C-153.12181807 94.03474742 -145.59038666 91.82170485 -135.60913086 91.95629883 C-134.73974884 91.95586075 -133.87036682 91.95542267 -132.97463989 91.95497131 C-130.13389719 91.95704216 -127.29376312 91.98029177 -124.453125 92.00390625 C-122.47058942 92.00950828 -120.48804966 92.01377551 -118.50550842 92.01676941 C-113.3121474 92.02817037 -108.11904197 92.05759634 -102.92578125 92.09088135 C-97.61657162 92.12168501 -92.3073203 92.13529668 -86.99804688 92.15039062 C-76.59884664 92.18247087 -66.19983528 92.2336093 -55.80078125 92.296875 C-55.8086113 91.20360901 -55.81644135 90.11034302 -55.82450867 88.98394775 C-55.80275931 85.60425222 -55.47398302 82.60038428 -54.8828125 79.28125 C-54.68292725 78.12915039 -54.48304199 76.97705078 -54.27709961 75.79003906 C-54.05803955 74.55479492 -53.83897949 73.31955078 -53.61328125 72.046875 C-52.10162883 63.34417665 -50.67358041 54.64551318 -49.49609375 45.890625 C-49.33698769 44.7193808 -49.33698769 44.7193808 -49.17466736 43.5244751 C-48.75836001 40.45037115 -48.34299911 37.3764648 -47.95449829 34.29870605 C-46.49561888 22.74254565 -44.88363207 11.4818808 -35.80078125 3.296875 C-25.56184934 -4.5439364 -11.38940896 -6.92577728 0 0 Z " fill="#C92361" transform="translate(276.80078125,112.703125)"/>
<path d="M0 0 C7.13356442 4.48704811 12.33399833 10.58926111 15.31640625 18.45703125 C17.69185011 33.52881297 13.46458044 49.75417106 10.94238281 64.63476562 C10.16673308 69.37094826 9.49777947 74.11791989 8.85693359 78.87402344 C8.12050393 83.75561414 7.21907604 88.60380793 6.31640625 93.45703125 C7.01860794 93.4481488 7.72080963 93.43926636 8.44429016 93.43011475 C15.10719809 93.34950108 21.76996716 93.28883176 28.4332552 93.24978256 C31.85781712 93.22903094 35.28197142 93.20094622 38.70629883 93.15527344 C42.65570968 93.10293528 46.60496354 93.08398331 50.5546875 93.06640625 C51.76659256 93.04576111 52.97849762 93.02511597 54.22712708 93.00384521 C63.07782393 93.00154078 70.54536834 94.48838544 78.12890625 99.20703125 C84.91433377 106.18632813 89.36048388 112.99443687 89.69140625 122.89453125 C89.33240755 133.72432537 84.79129904 141.43384337 77.00390625 148.76953125 C68.59799517 155.34008926 58.97531268 154.86350004 48.78125 154.75 C47.29196096 154.74439431 45.80266633 154.74012882 44.31336975 154.73713684 C40.42201052 154.7257645 36.53099524 154.69636453 32.63977051 154.6630249 C28.65768077 154.63215836 24.67553465 154.61859632 20.69335938 154.60351562 C12.90088605 154.57148613 5.10869462 154.52038397 -2.68359375 154.45703125 C-3.01359375 155.44703125 -3.34359375 156.43703125 -3.68359375 157.45703125 C-3.68359375 156.46703125 -3.68359375 155.47703125 -3.68359375 154.45703125 C-23.48359375 154.78703125 -43.28359375 155.11703125 -63.68359375 155.45703125 C-64.93660905 160.46909245 -65.99181996 164.91323438 -66.6484375 169.94921875 C-66.80699219 171.13942627 -66.96554687 172.32963379 -67.12890625 173.5559082 C-67.29132813 174.80202881 -67.45375 176.04814941 -67.62109375 177.33203125 C-69.10890303 188.42103201 -70.77972411 199.43045294 -72.68359375 210.45703125 C-74.00359375 218.37703125 -75.32359375 226.29703125 -76.68359375 234.45703125 C-102.09359375 234.45703125 -127.50359375 234.45703125 -153.68359375 234.45703125 C-153.68359375 220.95617946 -153.68359375 220.95617946 -152.8449707 215.58813477 C-152.66090164 214.38129532 -152.47683258 213.17445587 -152.28718567 211.93104553 C-152.08413315 210.66215988 -151.88108063 209.39327423 -151.671875 208.0859375 C-151.45892775 206.71535769 -151.24672131 205.34466261 -151.03520203 203.97386169 C-150.59087537 201.10627903 -150.14076368 198.23969187 -149.68579102 195.3737793 C-149.11790591 191.79655347 -148.55960015 188.21792952 -148.00519276 184.63859272 C-145.80740935 170.45553692 -143.50687298 156.29692397 -141.02734375 142.16015625 C-139.01788007 130.68472663 -137.31783561 119.20311292 -135.87109375 107.64453125 C-135.65356988 105.9458898 -135.43546964 104.24732206 -135.21679688 102.54882812 C-134.69918541 98.51903407 -134.18901455 94.4883716 -133.68359375 90.45703125 C-133.35359375 91.44703125 -133.02359375 92.43703125 -132.68359375 93.45703125 C-107.27359375 93.45703125 -81.86359375 93.45703125 -55.68359375 93.45703125 C-54.69359375 85.86703125 -53.70359375 78.27703125 -52.68359375 70.45703125 C-51.90305425 65.46794019 -51.10708011 60.4937687 -50.24609375 55.51953125 C-48.35404573 44.54108199 -48.35404573 44.54108199 -46.68359375 33.52734375 C-46.52431396 32.44702881 -46.36503418 31.36671387 -46.20092773 30.25366211 C-45.90884356 28.25704807 -45.63345438 26.25788029 -45.37915039 24.25610352 C-44.03421532 15.32640674 -39.71479741 8.31494345 -32.57421875 2.7421875 C-22.81954136 -3.88857461 -10.86460305 -5.06537506 0 0 Z " fill="#FE5788" transform="translate(415.68359375,111.54296875)"/>
<path d="M0 0 C2.51834106 -0.36076355 2.51834106 -0.36076355 5.73486328 -0.34057617 C6.93595734 -0.34034958 8.13705139 -0.34012299 9.37454224 -0.33988953 C11.32769852 -0.31666374 11.32769852 -0.31666374 13.3203125 -0.29296875 C14.66266405 -0.28737416 16.00502173 -0.28310341 17.34738159 -0.28010559 C20.88210941 -0.26864585 24.41646798 -0.23916959 27.9510498 -0.20599365 C31.55715947 -0.17531671 35.16332874 -0.16160538 38.76953125 -0.14648438 C45.84650532 -0.11430052 52.92322857 -0.06309094 60 0 C59.49548707 8.22874288 58.80870614 16.33633501 57.4765625 24.47265625 C57.32972015 25.40186386 57.18287781 26.33107147 57.03158569 27.28843689 C56.56827449 30.214041 56.09707707 33.13829889 55.625 36.0625 C55.01052892 39.9071574 54.39937363 43.75233652 53.7890625 47.59765625 C53.63979309 48.53485504 53.49052368 49.47205383 53.33673096 50.43765259 C51.77915833 60.27585039 50.37737257 70.135189 49 80 C49.9675119 79.99111755 50.9350238 79.98223511 51.93185425 79.9730835 C61.08211439 79.89174092 70.23230047 79.83191194 79.38284111 79.79275131 C84.08643626 79.77194104 88.78973783 79.74374434 93.49316406 79.69824219 C98.03842144 79.65454902 102.58339772 79.63081364 107.12884903 79.62049103 C108.85668483 79.61314155 110.5845065 79.59879036 112.31222153 79.57707977 C126.11657629 79.41062651 135.57050794 80.85106253 145.86328125 90.69140625 C151.71221521 97.01082118 153.30758709 103.23809481 153.140625 111.68359375 C152.63068458 120.08344569 149.21309133 126.47595446 144 133 C136.84876385 139.23770498 128.18615566 141.46494296 118.921875 141.34057617 C118.05263901 141.34101425 117.18340302 141.34145233 116.28782654 141.34190369 C113.4416483 141.33982938 110.59607413 141.31656304 107.75 141.29296875 C105.76603517 141.28736796 103.78206618 141.28310014 101.7980957 141.28010559 C96.5965005 141.2686949 91.39515977 141.23926036 86.19366455 141.20599365 C80.87784263 141.17521116 75.56197927 141.16158281 70.24609375 141.14648438 C59.83061785 141.11438693 49.41533015 141.06323648 39 141 C38.91000481 142.06710205 38.91000481 142.06710205 38.81819153 143.15576172 C38.35160974 148.51216242 37.80372813 153.81387186 36.94921875 159.125 C36.7473999 160.39577393 36.54558105 161.66654785 36.33764648 162.97583008 C36.1211249 164.31725137 35.90440502 165.65864066 35.6875 167 C35.23229166 169.83690935 34.7794866 172.67419493 34.328125 175.51171875 C34.15826332 176.57769539 34.15826332 176.57769539 33.98497009 177.66520691 C33.24599079 182.3393018 32.56602406 187.01871991 31.921875 191.70703125 C31.75469971 192.90779297 31.58752441 194.10855469 31.4152832 195.34570312 C31.10717226 197.58135741 30.80814289 199.81829123 30.52026367 202.05664062 C29.12665952 212.05454495 26.66564223 222.88724035 19 230 C10.42311464 236.30334913 2.56009948 238.58526316 -8 237 C-18.22060864 234.28813184 -23.71339011 228.9265708 -29 220 C-35.49489274 208.51494144 -31.27357694 194.58401135 -29.08203125 182.27734375 C-27.85576655 175.34286534 -26.91753416 168.38064518 -26.03979492 161.39453125 C-25.52309045 157.3928527 -24.92280625 153.48031816 -24 149.55078125 C-22.81495501 144.45039674 -22.222341 139.32208387 -21.625 134.125 C-20.52485899 124.95859916 -19.29235084 115.8197766 -17.9375 106.6875 C-17.77523926 105.58615723 -17.61297852 104.48481445 -17.44580078 103.35009766 C-16.72429837 98.52958257 -15.96475438 93.7268746 -15.05859375 88.9375 C-13.64817822 81.33331213 -12.61027009 73.6712642 -11.51306152 66.01702881 C-9.57397445 52.50289116 -7.58615634 39.00741229 -5.26269531 25.55322266 C-4.1309889 18.96447138 -3.22794607 12.37481914 -2.4921875 5.73046875 C-2 3 -2 3 0 0 Z " fill="#C92361" transform="translate(352,266)"/>
<path d="M0 0 C0.33 0 0.66 0 1 0 C1 1.65 1 3.3 1 5 C26.41 5 51.82 5 78 5 C76.87821851 17.33959638 76.87821851 17.33959638 76.0625 21.46875 C75.88847656 22.37753906 75.71445312 23.28632813 75.53515625 24.22265625 C75.35855469 25.13917969 75.18195313 26.05570312 75 27 C72.43606054 41.29048429 70.29619194 55.53722673 69 70 C68.67 68.68 68.34 67.36 68 66 C42.26 66 16.52 66 -10 66 C-10.33 70.29 -10.66 74.58 -11 79 C-11.31653715 81.6019809 -11.66163932 84.20085207 -12.05078125 86.79296875 C-12.14945496 87.45928314 -12.24812866 88.12559753 -12.34979248 88.81210327 C-12.66587505 90.93799155 -12.98864017 93.06278372 -13.3125 95.1875 C-13.5378833 96.68022634 -13.76305944 98.17298396 -13.98803711 99.66577148 C-14.32921781 101.92773415 -14.67100512 104.18959411 -15.01502991 106.4511261 C-15.73445431 111.18983127 -16.41755845 115.93233279 -17.078125 120.6796875 C-17.40623962 122.97395982 -17.734364 125.26823074 -18.0625 127.5625 C-18.20018799 128.59463623 -18.33787598 129.62677246 -18.47973633 130.69018555 C-19.40671689 137.01920714 -21.07857879 142.30933958 -24 148 C-24.33 148.66 -24.66 149.32 -25 150 C-25.66 150 -26.32 150 -27 150 C-27.25523437 150.60714844 -27.51046875 151.21429688 -27.7734375 151.83984375 C-30.62492852 156.86173718 -37.48540409 159.67959454 -42.80859375 161.4921875 C-51.27152811 163.45329528 -58.37425378 161.83981921 -66 158 C-67.051875 157.484375 -68.10375 156.96875 -69.1875 156.4375 C-75.75004483 150.74996115 -80.32098905 142.60149534 -81.2109375 133.94921875 C-81.46485325 128.13845457 -80.50530828 122.63875709 -79.42138672 116.94580078 C-77.69881048 107.75676781 -76.42957551 98.49545997 -75.11709595 89.24072266 C-74.8086414 87.06633471 -74.49622314 84.89254098 -74.18359375 82.71875 C-74.00368896 81.44966797 -73.82378418 80.18058594 -73.63842773 78.87304688 C-72.9237732 74.53756711 -71.99769682 70.27765636 -71 66 C-71.72361221 66.00444122 -72.44722443 66.00888245 -73.19276428 66.01345825 C-80.03356917 66.05363929 -86.87435627 66.08403727 -93.71524906 66.10362434 C-97.23168562 66.114033 -100.74802414 66.12813839 -104.2644043 66.15087891 C-108.31299751 66.17689549 -112.36148876 66.1864969 -116.41015625 66.1953125 C-118.29179222 66.21079636 -118.29179222 66.21079636 -120.21144104 66.22659302 C-126.19221986 66.22735822 -131.36990415 66.09812727 -137 64 C-137 63.34 -137 62.68 -137 62 C-137.845625 61.855625 -138.69125 61.71125 -139.5625 61.5625 C-146.13662481 58.57426145 -150.31774551 51.5566221 -153 45 C-155.20466287 35.60281998 -154.39654876 27.60054794 -150 19 C-149.34 18.01 -148.68 17.02 -148 16 C-147.34 16 -146.68 16 -146 16 C-145.74476563 15.39414062 -145.48953125 14.78828125 -145.2265625 14.1640625 C-143.85034503 11.73595907 -142.73080262 10.82977851 -140.375 9.375 C-139.42753906 8.76785156 -139.42753906 8.76785156 -138.4609375 8.1484375 C-130.96302114 4.64940986 -123.5519284 4.72257277 -115.43359375 4.77294922 C-114.19372208 4.77265717 -112.9538504 4.77236511 -111.67640686 4.77206421 C-108.29879164 4.77321359 -104.92142503 4.78320008 -101.54385376 4.79721212 C-98.00580589 4.80976853 -94.46775422 4.81089384 -90.9296875 4.81326294 C-84.23984611 4.81946334 -77.55007058 4.83585454 -70.8602581 4.85596192 C-63.23991247 4.87836589 -55.61956359 4.88932563 -47.99919319 4.89935279 C-32.3327574 4.92022215 -16.66638722 4.95536993 -1 5 C-0.67 3.35 -0.34 1.7 0 0 Z " fill="#FE5788" transform="translate(261,341)"/>
<path d="M0 0 C0.86938202 -0.00043808 1.73876404 -0.00087616 2.63449097 -0.00132751 C5.47523367 0.00074333 8.31536774 0.02399294 11.15600586 0.04760742 C13.13854144 0.05320945 15.1210812 0.05747668 17.10362244 0.06047058 C22.29698346 0.07187154 27.49008889 0.10129751 32.68334961 0.13458252 C37.99255924 0.16538618 43.30181056 0.17899785 48.61108398 0.1940918 C59.01028422 0.22617204 69.40929558 0.27731047 79.80834961 0.34057617 C79.15600261 5.03282876 78.49857958 9.72433555 77.83691406 14.4152832 C77.61359213 16.00331474 77.39153807 17.59152521 77.17089844 19.17993164 C76.02420223 27.42883058 74.80316814 35.63496687 73.20288086 43.80932617 C72.00546116 49.97965973 71.19372734 56.06822141 70.80834961 62.34057617 C60.79372277 62.25596852 50.77925168 62.16100681 40.76484776 62.05304909 C36.11409515 62.00323343 31.46336365 61.95690276 26.8125 61.91870117 C22.31903345 61.88166145 17.82575006 61.83525225 13.33244133 61.78251266 C11.62339447 61.76406754 9.9143085 61.74892365 8.2052021 61.73723221 C-5.61321851 61.63937298 -15.67139824 61.29736475 -26.14086914 51.52026367 C-32.09240061 45.35662312 -34.23759965 38.7675853 -34.56665039 30.27807617 C-34.27918316 21.95459303 -31.4011037 14.27899828 -25.25024414 8.52416992 C-17.51268722 2.07844859 -9.9812558 -0.13459398 0 0 Z " fill="#FE5788" transform="translate(141.191650390625,204.659423828125)"/>
<path d="M0 0 C25.74 0 51.48 0 78 0 C74.55592105 29.84868421 74.55592105 29.84868421 72.5625 41.125 C72.16772256 43.41922848 71.77320116 45.71350104 71.37890625 48.0078125 C70.92386719 50.64523437 70.46882813 53.28265625 70 56 C68.68 63.92 67.36 71.84 66 80 C40.59 80 15.18 80 -11 80 C-11 66.49903405 -11 66.49903405 -10.09790039 60.71850586 C-9.90092056 59.42774643 -9.70394073 58.136987 -9.50099182 56.80711365 C-9.28348635 55.44298012 -9.06570141 54.07889112 -8.84765625 52.71484375 C-8.62513231 51.28197662 -8.40333923 49.84899582 -8.18223572 48.41590881 C-7.72113238 45.43922599 -7.25423838 42.46353639 -6.7824707 39.48852539 C-6.17807018 35.67675226 -5.58400278 31.86346175 -4.99364567 28.04949093 C-4.42764621 24.3957277 -3.8565993 20.74275886 -3.28515625 17.08984375 C-3.17709215 16.39628218 -3.06902805 15.7027206 -2.95768929 14.98814201 C-2.65175041 13.03063726 -2.34171865 11.0737735 -2.03149414 9.11694336 C-1.85606583 8.00508163 -1.68063751 6.89321991 -1.49989319 5.74766541 C-1 3 -1 3 0 0 Z " fill="#FEFDFE" transform="translate(273,266)"/>
<path d="M0 0 C10.2579191 -0.09297112 20.51573679 -0.16390204 30.77399254 -0.20724869 C35.53811985 -0.22806042 40.30195738 -0.25625989 45.06591797 -0.30175781 C49.66952968 -0.34544564 54.27286389 -0.36918527 58.87666702 -0.37950897 C60.62683094 -0.38685939 62.37698088 -0.40121246 64.1270256 -0.42292023 C78.02916869 -0.58839487 87.41092349 0.69849279 97.86328125 10.69140625 C103.71221521 17.01082118 105.30758709 23.23809481 105.140625 31.68359375 C104.63068458 40.08344569 101.21309133 46.47595446 96 53 C88.84876385 59.23770498 80.18615566 61.46494296 70.921875 61.34057617 C70.05263901 61.34101425 69.18340302 61.34145233 68.28782654 61.34190369 C65.4416483 61.33982938 62.59607413 61.31656304 59.75 61.29296875 C57.76603517 61.28736796 55.78206618 61.28310014 53.7980957 61.28010559 C48.5965005 61.2686949 43.39515977 61.23926036 38.19366455 61.20599365 C32.87784263 61.17521116 27.56197927 61.16158281 22.24609375 61.14648438 C11.83061785 61.11438693 1.41533015 61.06323648 -9 61 C-6.93119443 45.26871097 -6.93119443 45.26871097 -5.78125 38.02734375 C-5.67784302 37.37149796 -5.57443604 36.71565216 -5.46789551 36.03993225 C-5.14694244 34.00551811 -4.82369342 31.97147975 -4.5 29.9375 C-4.17658813 27.89990734 -3.85376089 25.86222664 -3.53210449 23.82435608 C-3.24072025 21.97898406 -2.9475801 20.13388953 -2.65429688 18.28881836 C-1.70778802 12.2017839 -0.86371564 6.09920694 0 0 Z " fill="#FE5788" transform="translate(400,346)"/>
<path d="M0 0 C1.06367294 0.00222061 2.12734589 0.00444122 3.22325134 0.00672913 C5.02500572 0.00684242 5.02500572 0.00684242 6.86315918 0.00695801 C8.17042465 0.01211929 9.47769012 0.01728058 10.8245697 0.02259827 C12.16835477 0.02446253 13.51214052 0.02588639 14.85592651 0.02688599 C18.39873622 0.0307105 21.94150515 0.0405402 25.48429871 0.05158997 C29.09706572 0.06180552 32.7098393 0.06638392 36.32261658 0.07142639 C43.41573225 0.08216254 50.50882019 0.09923816 57.60191345 0.12025452 C57.10903457 7.08686894 56.58819261 14.00525126 55.5511322 20.91322327 C55.4524585 21.57953766 55.35378479 22.24585205 55.25212097 22.93235779 C54.9360384 25.05824607 54.61327328 27.18303824 54.28941345 29.30775452 C54.06403016 30.80048085 53.83885401 32.29323848 53.61387634 33.786026 C53.27269564 36.04798867 52.93090833 38.30984863 52.58688354 40.57138062 C51.86745914 45.31008579 51.184355 50.05258731 50.52378845 54.79994202 C50.19567383 57.09421433 49.86754946 59.38848526 49.53941345 61.68275452 C49.40172546 62.71489075 49.26403748 63.74702698 49.12217712 64.81044006 C48.19519656 71.13946165 46.52333466 76.4295941 43.60191345 82.12025452 C43.27191345 82.78025452 42.94191345 83.44025452 42.60191345 84.12025452 C41.94191345 84.12025452 41.28191345 84.12025452 40.60191345 84.12025452 C40.34667908 84.72740295 40.0914447 85.33455139 39.82847595 85.96009827 C36.97698493 90.98199169 30.11650937 93.79984906 24.7933197 95.61244202 C16.33038535 97.5735498 9.22765968 95.96007373 1.60191345 92.12025452 C0.55003845 91.60462952 -0.50183655 91.08900452 -1.58558655 90.55775452 C-8.14813138 84.87021567 -12.7190756 76.72174985 -13.60902405 68.06947327 C-13.86290232 62.25956661 -12.90436903 56.76023066 -11.81947327 51.06825256 C-10.80159971 45.64248859 -9.94647443 40.20395832 -9.15589905 34.74134827 C-8.99328835 33.61812668 -8.99328835 33.61812668 -8.82739258 32.47221375 C-8.38599033 29.41054662 -7.94709742 26.34855873 -7.5151825 23.28553772 C-7.20738889 21.10364621 -6.89473102 18.92249073 -6.5816803 16.74134827 C-6.40177551 15.46702942 -6.22187073 14.19271057 -6.03651428 12.879776 C-3.88238022 0.19468595 -3.88238022 0.19468595 0 0 Z " fill="#C92461" transform="translate(193.39808654785156,406.87974548339844)"/>
<path d="M0 0 C7.13356442 4.48704811 12.33399833 10.58926111 15.31640625 18.45703125 C17.6921812 33.53091368 13.46244825 49.75581118 10.94238281 64.63867188 C10.17139882 69.34155394 9.50041233 74.05453367 8.85693359 78.77636719 C8.08757683 84.01522113 7.18690627 89.23403113 6.31640625 94.45703125 C-23.38359375 93.96203125 -23.38359375 93.96203125 -53.68359375 93.45703125 C-53.68359375 76.57267751 -53.68359375 76.57267751 -52.765625 70.5390625 C-52.66836121 69.88104645 -52.57109741 69.2230304 -52.47088623 68.54507446 C-52.15781419 66.45120903 -51.82829751 64.36043958 -51.49609375 62.26953125 C-51.26718618 60.79114506 -51.03859454 59.31270992 -50.81030273 57.83422852 C-50.34373001 54.83434457 -49.86778558 51.83614509 -49.38476562 48.83886719 C-48.81975449 45.33010541 -48.28055836 41.81805635 -47.74983215 38.30397034 C-47.26927535 35.16414229 -46.75621029 32.02967083 -46.24609375 28.89453125 C-46.07762939 27.76700439 -45.90916504 26.63947754 -45.7355957 25.4777832 C-44.12092062 16.0148522 -40.22170637 8.71055284 -32.57421875 2.7421875 C-22.81954136 -3.88857461 -10.86460305 -5.06537506 0 0 Z " fill="#C92461" transform="translate(415.68359375,111.54296875)"/>
<path d="M0 0 C10.12753427 -0.09297796 20.25496578 -0.16390546 30.38284111 -0.20724869 C35.08643626 -0.22805896 39.78973783 -0.25625566 44.49316406 -0.30175781 C49.03842144 -0.34545098 53.58339772 -0.36918636 58.12884903 -0.37950897 C59.85668483 -0.38685845 61.5845065 -0.40120964 63.31222153 -0.42292023 C72.48537616 -0.53353036 80.74115386 -0.6020723 89 4 C89 4.33 89 4.66 89 5 C84.65743101 5.16083589 80.91932517 5.05624113 76.70166016 4.00439453 C69.56893826 2.52806603 62.39369632 2.75153127 55.1484375 2.8046875 C53.638155 2.80842558 52.12787004 2.81126879 50.61758423 2.81326294 C46.67536522 2.82083693 42.73329759 2.8404305 38.7911377 2.8626709 C34.75531053 2.88326497 30.7194585 2.89229343 26.68359375 2.90234375 C18.78899364 2.9236834 10.89451574 2.95774234 3 3 C3 2.34 3 1.68 3 1 C2.01 1.33 1.02 1.66 0 2 C0 1.34 0 0.68 0 0 Z " fill="#FD6295" transform="translate(401,346)"/>
<path d="M0 0 C1.46830044 0.00373617 2.93660339 0.00658028 4.40490723 0.00857544 C8.24522949 0.01616443 12.08539737 0.03577147 15.92565918 0.0579834 C19.85406405 0.07854457 23.78249418 0.08759899 27.7109375 0.09765625 C35.40111159 0.11902248 43.09115906 0.15310028 50.78125 0.1953125 C47.257459 2.36502328 44.39580445 2.45662517 40.30029297 2.48242188 C38.98568085 2.49583618 37.67106873 2.50925049 36.31661987 2.52307129 C35.26717508 2.52691582 35.26717508 2.52691582 34.19652939 2.53083801 C32.00276082 2.53914075 29.8094058 2.55965523 27.61575317 2.58337402 C22.17076331 2.63972744 16.7256734 2.67504629 11.28051758 2.71099854 C6.67331061 2.74220528 2.06630645 2.78135432 -2.54073715 2.83125305 C-4.70452296 2.85135772 -6.8681531 2.85964642 -9.03201294 2.86755371 C-10.34032074 2.88096802 -11.64862854 2.89438232 -12.99658203 2.90820312 C-14.1525589 2.91549438 -15.30853577 2.92278564 -16.49954224 2.93029785 C-19.36595146 2.91905898 -19.36595146 2.91905898 -21.21875 5.1953125 C-21.21875 4.5353125 -21.21875 3.8753125 -21.21875 3.1953125 C-21.87875 2.8653125 -22.53875 2.5353125 -23.21875 2.1953125 C-15.55880099 -0.28644228 -7.96005151 -0.0597847 0 0 Z " fill="#FE6496" transform="translate(148.21875,345.8046875)"/>
<path d="M0 0 C25.74 0 51.48 0 78 0 C78 0.33 78 0.66 78 1 C53.58 1.33 29.16 1.66 4 2 C2.35104103 7.7713564 1.83112816 10.53379174 2.22265625 16.08203125 C2.11244141 17.03142578 2.11244141 17.03142578 2 18 C1.01 18.66 0.02 19.32 -1 20 C-2.73382134 12.54456823 -1.29994171 8.44962109 0 0 Z " fill="#FCE7E7" transform="translate(251,407)"/>
<path d="M0 0 C-0.66 0.99 -1.32 1.98 -2 3 C-4.69526732 3.25653217 -7.15380051 3.31928787 -9.84619141 3.2487793 C-10.65602982 3.23946381 -11.46586823 3.23014832 -12.30024719 3.22055054 C-14.98443836 3.18609938 -17.66774146 3.1302202 -20.3515625 3.07421875 C-22.20956517 3.0461947 -24.06758838 3.01950334 -25.92562866 2.99409485 C-30.82169756 2.92354618 -35.71727752 2.83484277 -40.61297607 2.74243164 C-45.60639877 2.65136434 -50.60007066 2.57736417 -55.59375 2.50195312 C-65.39615413 2.35139506 -75.19812655 2.18166801 -85 2 C-85 1.67 -85 1.34 -85 1 C-74.6556535 0.86924717 -64.3113028 0.73883241 -53.9669466 0.60884857 C-49.16359054 0.54848054 -44.36023601 0.48799631 -39.55688477 0.42724609 C-34.92090885 0.36861703 -30.28492919 0.31029377 -25.64894676 0.25218201 C-23.88073782 0.22996397 -22.11253025 0.20763597 -20.34432411 0.18519592 C-17.86667862 0.15377131 -15.38902851 0.12273857 -12.91137695 0.09179688 C-12.18129425 0.08244614 -11.45121155 0.0730954 -10.69900513 0.0634613 C-7.13242985 0.01932974 -3.5668544 -0.01020381 0 0 Z " fill="#F4608C" transform="translate(221,205)"/>
<path d="M0 0 C29.205 0.495 29.205 0.495 59 1 C58.67 1.66 58.34 2.32 58 3 C39.85 3 21.7 3 3 3 C2.01 5.31 1.02 7.62 0 10 C-1.36948916 6.04369799 -0.77791742 4.66750453 0 0 Z " fill="#CD2D65" transform="translate(350,269)"/>
<path d="M0 0 C2.69937369 3.86124004 1.82587217 7.45252668 1.1015625 11.828125 C0.98775238 12.57713074 0.87394226 13.32613647 0.75668335 14.09783936 C0.39133151 16.48390836 0.00842997 18.86677615 -0.375 21.25 C-0.62616282 22.86961177 -0.87617637 24.48940221 -1.125 26.109375 C-1.73669568 30.07511132 -2.36414234 34.03806902 -3 38 C-3.33 38 -3.66 38 -4 38 C-3.505 29.09 -3.505 29.09 -3 20 C-3.66 20.33 -4.32 20.66 -5 21 C-5.125 15.25 -5.125 15.25 -4 13 C-3.34 13 -2.68 13 -2 13 C-1.93941406 12.22914063 -1.87882812 11.45828125 -1.81640625 10.6640625 C-1.69072266 9.15972656 -1.69072266 9.15972656 -1.5625 7.625 C-1.48128906 6.62726563 -1.40007812 5.62953125 -1.31640625 4.6015625 C-1 2 -1 2 0 0 Z " fill="#F9E5EE" transform="translate(326,416)"/>
<path d="M0 0 C1.08227366 4.32909465 0.57917745 7.26240431 -0.3125 11.5 C-0.5973847 12.92687797 -0.88122808 14.35396421 -1.1640625 15.78125 C-1.30618164 16.48894531 -1.44830078 17.19664062 -1.59472656 17.92578125 C-2.50748808 22.59736066 -3.24354136 27.3010569 -4 32 C-4.33 32 -4.66 32 -5 32 C-4.67 27.05 -4.34 22.1 -4 17 C-4.66 17.99 -5.32 18.98 -6 20 C-6.05410687 18.22950311 -6.09284119 16.45853151 -6.125 14.6875 C-6.14820313 13.70136719 -6.17140625 12.71523437 -6.1953125 11.69921875 C-6 9 -6 9 -4 6 C-3.67 6.66 -3.34 7.32 -3 8 C-2.01 5.36 -1.02 2.72 0 0 Z " fill="#C8386C" transform="translate(287,170)"/>
<path d="M0 0 C0.33 0 0.66 0 1 0 C1.05859857 3.35409194 1.09379582 6.70805017 1.125 10.0625 C1.14175781 11.00544922 1.15851563 11.94839844 1.17578125 12.91992188 C1.21372771 18.36523938 0.81252643 22.85499388 -1 28 C-1.66 28 -2.32 28 -3 28 C-3.33 28.66 -3.66 29.32 -4 30 C-2.8699192 19.9615163 -1.63014389 9.97162487 0 0 Z " fill="#F5DBE7" transform="translate(388,424)"/>
<path d="M0 0 C0.66 0 1.32 0 2 0 C2 7.59 2 15.18 2 23 C1.34 22.01 0.68 21.02 0 20 C-0.99 21.32 -1.98 22.64 -3 24 C-2.68957083 21.12476286 -2.37672481 18.24982273 -2.0625 15.375 C-1.97548828 14.56675781 -1.88847656 13.75851563 -1.79882812 12.92578125 C-1.32290463 8.58958942 -0.77162811 4.29609164 0 0 Z " fill="#C82F67" transform="translate(229,148)"/>
<path d="M0 0 C0.33 0 0.66 0 1 0 C1.66 4.95 2.32 9.9 3 15 C3.66 15 4.32 15 5 15 C5.33 14.01 5.66 13.02 6 12 C6 13.32 6 14.64 6 16 C5.34 16 4.68 16 4 16 C3.67 17.32 3.34 18.64 3 20 C1.35 19.67 -0.3 19.34 -2 19 C-2.29530838 12.50321562 -1.17293889 6.3778552 0 0 Z " fill="#CD366D" transform="translate(202,324)"/>
<path d="M0 0 C0.33 0 0.66 0 1 0 C1.25 6.625 1.25 6.625 -1 10 C-1.66 10 -2.32 10 -3 10 C-3.4021875 11.11375 -3.4021875 11.11375 -3.8125 12.25 C-4.94229421 14.86636554 -6.20893202 16.80187111 -8 19 C-7.75428474 11.25996945 -5.5769989 5.5769989 0 0 Z " fill="#CD2E68" transform="translate(379,118)"/>
<path d="M0 0 C2.97 0.33 5.94 0.66 9 1 C9 1.66 9 2.32 9 3 C11.64 2.67 14.28 2.34 17 2 C17 2.66 17 3.32 17 4 C13.99686252 5.50156874 11.20932478 5.09281204 7.875 5.0625 C6.59367187 5.05347656 5.31234375 5.04445313 3.9921875 5.03515625 C2.51105469 5.01775391 2.51105469 5.01775391 1 5 C0.67 3.35 0.34 1.7 0 0 Z " fill="#D0326A" transform="translate(343,498)"/>
<path d="M0 0 C0.33 0 0.66 0 1 0 C1.33 2.64 1.66 5.28 2 8 C2.66 7.34 3.32 6.68 4 6 C4 9.3 4 12.6 4 16 C2 16 0 16 -2 16 C-1.34 10.72 -0.68 5.44 0 0 Z " fill="#F7EBF1" transform="translate(290,152)"/>
<path d="M0 0 C0.33 0 0.66 0 1 0 C0.97679687 0.74765625 0.95359375 1.4953125 0.9296875 2.265625 C0.91164063 3.25046875 0.89359375 4.2353125 0.875 5.25 C0.85179687 6.22453125 0.82859375 7.1990625 0.8046875 8.203125 C1.00453649 11.06496252 1.63850317 12.52933008 3 15 C3.3125 18.125 3.3125 18.125 3 21 C2.01 21.66 1.02 22.32 0 23 C-3.07680491 16.84639017 -1.2723312 6.67973882 0 0 Z " fill="#CF3F75" transform="translate(321,459)"/>
<path d="M0 0 C0.33 0 0.66 0 1 0 C2.22517308 5.66642551 2.09228867 11.23708518 2 17 C1.34 17 0.68 17 0 17 C-0.33 17.99 -0.66 18.98 -1 20 C-1.33 20 -1.66 20 -2 20 C-2.26404456 13.13484138 -1.25841946 6.74153283 0 0 Z " fill="#F9E8F0" transform="translate(245,447)"/>
<path d="M0 0 C0.66 0.33 1.32 0.66 2 1 C4.204364 1.22950319 6.41392173 1.41075933 8.625 1.5625 C9.81351563 1.64628906 11.00203125 1.73007812 12.2265625 1.81640625 C13.59941406 1.90728516 13.59941406 1.90728516 15 2 C10.21568804 4.83015637 5.40420076 4.40551001 0 4 C-3.6875 3 -3.6875 3 -6 2 C-6 1.34 -6 0.68 -6 0 C-3 -1 -3 -1 0 0 Z " fill="#CD3469" transform="translate(205,499)"/>
<path d="M0 0 C0.99 0.33 1.98 0.66 3 1 C2.67 1.969375 2.34 2.93875 2 3.9375 C0.87563699 7.73707156 0.94544193 11.15370147 1.22265625 15.08203125 C1.14917969 15.71496094 1.07570312 16.34789062 1 17 C0.01 17.66 -0.98 18.32 -2 19 C-3.69843394 12.20626425 -1.92258516 6.61499641 0 0 Z " fill="#F7EEF4" transform="translate(252,408)"/>
<path d="M0 0 C2.0885018 4.17700361 2.94287917 7.37321259 3 12 C2.125 14.375 2.125 14.375 1 16 C0.67 16.66 0.34 17.32 0 18 C-0.66 18 -1.32 18 -2 18 C-1.34 12.06 -0.68 6.12 0 0 Z " fill="#D13C72" transform="translate(188,416)"/>
<path d="M0 0 C0.66 0.33 1.32 0.66 2 1 C1.85796663 3.37528151 1.71148388 5.75015251 1.5625 8.125 C1.50352539 9.12273437 1.50352539 9.12273437 1.44335938 10.140625 C1.187848 14.15018817 0.73217587 18.04994196 0 22 C-0.33 22 -0.66 22 -1 22 C-0.98839844 21.14535156 -0.97679687 20.29070312 -0.96484375 19.41015625 C-0.95582031 18.30542969 -0.94679688 17.20070313 -0.9375 16.0625 C-0.92589844 14.96035156 -0.91429687 13.85820312 -0.90234375 12.72265625 C-0.68737429 10.08552366 -0.68737429 10.08552366 -2 9 C-2.66 9.66 -3.32 10.32 -4 11 C-3.67 9.35 -3.34 7.7 -3 6 C-2.01 6 -1.02 6 0 6 C0 4.02 0 2.04 0 0 Z " fill="#F7E6EF" transform="translate(341,314)"/>
<path d="M0 0 C1.14889133 3.93905597 1.52582695 7.93565958 2 12 C0 12 -2 12 -4 12 C-3.9129995 10.37399059 -3.8048219 8.74910322 -3.6875 7.125 C-3.62949219 6.22007812 -3.57148438 5.31515625 -3.51171875 4.3828125 C-3 2 -3 2 0 0 Z " fill="#D1336B" transform="translate(212,276)"/>
<path d="M0 0 C0.99 0 1.98 0 3 0 C2.34 5.28 1.68 10.56 1 16 C0.67 16 0.34 16 0 16 C0 13.36 0 10.72 0 8 C-0.66 8 -1.32 8 -2 8 C-1.125 1.125 -1.125 1.125 0 0 Z " fill="#F9E9F1" transform="translate(227,144)"/>
<path d="M0 0 C0.99 0.33 1.98 0.66 3 1 C3 1.66 3 2.32 3 3 C2.01 3 1.02 3 0 3 C0.33 3.66 0.66 4.32 1 5 C1.33 5.66 1.66 6.32 2 7 C0.0625 7.5625 0.0625 7.5625 -2 8 C-2.33 7.67 -2.66 7.34 -3 7 C-3.66 7.66 -4.32 8.32 -5 9 C-5.66 7.68 -6.32 6.36 -7 5 C-2.25 1.125 -2.25 1.125 0 0 Z " fill="#CE326B" transform="translate(387,112)"/>
<path d="M0 0 C1.3303125 0.13535156 1.3303125 0.13535156 2.6875 0.2734375 C5 0.625 5 0.625 7 1.625 C7 2.615 7 3.605 7 4.625 C6.21882813 4.39490234 6.21882813 4.39490234 5.421875 4.16015625 C2.36721485 3.48517489 -0.63015971 3.28088882 -3.75 3.0625 C-4.92046875 2.97871094 -6.0909375 2.89492187 -7.296875 2.80859375 C-8.18890625 2.74800781 -9.0809375 2.68742187 -10 2.625 C-6.02950924 -0.02199384 -4.67398118 -0.50272472 0 0 Z " fill="#F6F0F6" transform="translate(405,106.375)"/>
<path d="M0 0 C0.66 0 1.32 0 2 0 C1.34 5.28 0.68 10.56 0 16 C-0.33 16 -0.66 16 -1 16 C-1.95498418 11.2250791 -2.24243031 6.84860624 -2 2 C-1.34 1.34 -0.68 0.68 0 0 Z " fill="#CC3167" transform="translate(390,402)"/>
<path d="M0 0 C1.98 0 3.96 0 6 0 C6 1.32 6 2.64 6 4 C5.01 4.66 4.02 5.32 3 6 C1.66209359 6.99387334 0.32781878 7.9926892 -1 9 C-0.67 6.03 -0.34 3.06 0 0 Z " fill="#F6F1F5" transform="translate(273,266)"/>
<path d="M0 0 C-1.75 4.875 -1.75 4.875 -4 6 C-7 6.1875 -7 6.1875 -10 6 C-10.66 5.34 -11.32 4.68 -12 4 C-10.3767313 3.3291288 -8.75132422 2.66342971 -7.125 2 C-6.22007812 1.62875 -5.31515625 1.2575 -4.3828125 0.875 C-2 0 -2 0 0 0 Z " fill="#F3DBE5" transform="translate(228,498)"/>
<path d="M0 0 C0.98120464 3.05263664 0.98120464 4.94736336 0 8 C-0.66 8 -1.32 8 -2 8 C-2.33 8.99 -2.66 9.98 -3 11 C-4.65 11.33 -6.3 11.66 -8 12 C-6.7260411 9.96166576 -5.38938077 7.96147874 -4 6 C-3.34 6 -2.68 6 -2 6 C-1.34 4.02 -0.68 2.04 0 0 Z " fill="#F6E6ED" transform="translate(238,485)"/>
<path d="M0 0 C0.33 0 0.66 0 1 0 C1.36508677 2.54052114 1.71731457 5.0817628 2.0625 7.625 C2.16626953 8.33785156 2.27003906 9.05070312 2.37695312 9.78515625 C2.95108834 14.10106924 2.97103611 17.69484691 2 22 C1.67 22 1.34 22 1 22 C0.77213542 20.046875 0.54427083 18.09375 0.31640625 16.140625 C0.05138506 14.0137099 0.05138506 14.0137099 -0.5625 12.0625 C-1.10765309 9.49249258 -0.87080222 7.35344096 -0.5625 4.75 C-0.46066406 3.85796875 -0.35882813 2.9659375 -0.25390625 2.046875 C-0.17011719 1.37140625 -0.08632813 0.6959375 0 0 Z " fill="#C9386E" transform="translate(325,432)"/>
<path d="M0 0 C1.13732426 3.40401948 0.83989957 5.77456664 0.0625 9.25 C-0.13214844 10.14203125 -0.32679688 11.0340625 -0.52734375 11.953125 C-0.68332031 12.62859375 -0.83929688 13.3040625 -1 14 C-3 12 -3 12 -3.046875 9.43359375 C-2.94890625 8.44488281 -2.8509375 7.45617187 -2.75 6.4375 C-2.66234375 5.44621094 -2.5746875 4.45492188 -2.484375 3.43359375 C-2.32453125 2.63050781 -2.1646875 1.82742188 -2 1 C-1.34 0.67 -0.68 0.34 0 0 Z " fill="#F4E1EB" transform="translate(269,300)"/>
<path d="M0 0 C0.33 0.99 0.66 1.98 1 3 C2.65 3 4.3 3 6 3 C5.01 3.33 4.02 3.66 3 4 C3 4.66 3 5.32 3 6 C2.34 6 1.68 6 1 6 C0.95101563 6.69867188 0.90203125 7.39734375 0.8515625 8.1171875 C0.77679688 9.02726563 0.70203125 9.93734375 0.625 10.875 C0.52058594 12.23238281 0.52058594 12.23238281 0.4140625 13.6171875 C0 16 0 16 -2 18 C-1.34 12.06 -0.68 6.12 0 0 Z " fill="#EF5385" transform="translate(282,202)"/>
<path d="M0 0 C0.33 0 0.66 0 1 0 C1.33 2.64 1.66 5.28 2 8 C1.34 8 0.68 8 0 8 C0.05220703 9.01320312 0.05220703 9.01320312 0.10546875 10.046875 C0.14607422 11.38492188 0.14607422 11.38492188 0.1875 12.75 C0.22230469 13.63171875 0.25710938 14.5134375 0.29296875 15.421875 C-0.05076316 18.44671583 -1.00227459 19.75583602 -3 22 C-2.68905914 19.45813394 -2.37629464 16.91651402 -2.0625 14.375 C-1.97548828 13.66214844 -1.88847656 12.94929687 -1.79882812 12.21484375 C-1.29217395 8.12408039 -0.7110957 4.06157365 0 0 Z " fill="#CE4979" transform="translate(370,138)"/>
<path d="M0 0 C2.64 1.98 5.28 3.96 8 6 C7.67 6.66 7.34 7.32 7 8 C2.75177626 7.52797514 0.80010291 5.03344482 -2 2 C-1.34 2 -0.68 2 0 2 C0 1.34 0 0.68 0 0 Z " fill="#F8EEEF" transform="translate(115,256)"/>
<path d="M0 0 C1.485 0.99 1.485 0.99 3 2 C2.67 5.96 2.34 9.92 2 14 C1.01 13.34 0.02 12.68 -1 12 C-0.67 8.04 -0.34 4.08 0 0 Z " fill="#F1D8E3" transform="translate(346,278)"/>
<path d="M0 0 C0.33 0.99 0.66 1.98 1 3 C-0.43029572 5.86059144 -2.14447973 6.63713805 -5 8 C-7.8125 7.6875 -7.8125 7.6875 -10 7 C-8.72070154 4.44140308 -7.55728932 4.13851266 -5 2.9375 C-2.30092276 1.75531476 -2.30092276 1.75531476 0 0 Z " fill="#F9DDE5" transform="translate(494,399)"/>
<path d="M0 0 C0.33 0 0.66 0 1 0 C1.33 2.97 1.66 5.94 2 9 C1.34 9 0.68 9 0 9 C0.33 10.98 0.66 12.96 1 15 C0.01 15.33 -0.98 15.66 -2 16 C-1.34 10.72 -0.68 5.44 0 0 Z " fill="#CD4777" transform="translate(364,178)"/>
<path d="M0 0 C1.125 1.75 1.125 1.75 2 4 C1.34241884 5.33783753 0.67436253 6.67054244 0 8 C-0.44811137 10.35564596 -0.44811137 10.35564596 -0.625 12.75 C-0.69976562 13.54921875 -0.77453125 14.3484375 -0.8515625 15.171875 C-0.90054688 15.77515625 -0.94953125 16.3784375 -1 17 C-1.33 17 -1.66 17 -2 17 C-2.3690205 5.47835991 -2.3690205 5.47835991 0 0 Z " fill="#F67EA2" transform="translate(109,364)"/>
<path d="M0 0 C0.66 0.33 1.32 0.66 2 1 C1.88544319 2.91731918 1.75793742 4.8338675 1.625 6.75 C1.55539062 7.81734375 1.48578125 8.8846875 1.4140625 9.984375 C1.0271777 12.80206432 0.44313834 14.5830366 -1 17 C-1.02699725 14.72923158 -1.04639453 12.45837179 -1.0625 10.1875 C-1.07990234 8.29064453 -1.07990234 8.29064453 -1.09765625 6.35546875 C-1 3 -1 3 0 0 Z " fill="#F9E5F0" transform="translate(364,165)"/>
<path d="M0 0 C1.5625 1.0625 1.5625 1.0625 3 3 C2.6875 6.6875 2.6875 6.6875 2 10 C1.34 8.68 0.68 7.36 0 6 C-0.99 6.33 -1.98 6.66 -3 7 C-1.125 1.125 -1.125 1.125 0 0 Z " fill="#CF366E" transform="translate(236,122)"/>
<path d="M0 0 C1.53166168 4.08443115 0.63081652 7.79455657 0 12 C-0.66 11.67 -1.32 11.34 -2 11 C-2 7.7 -2 4.4 -2 1 C-1.34 0.67 -0.68 0.34 0 0 Z " fill="#D25181" transform="translate(182,466)"/>
<path d="M0 0 C0.99 0.33 1.98 0.66 3 1 C1.86073078 3.27853844 1.03667615 4.45493534 -1 6 C-4.1875 6.1875 -4.1875 6.1875 -7 6 C-2.25 1.125 -2.25 1.125 0 0 Z " fill="#FB6894" transform="translate(123,208)"/>
<path d="M0 0 C2.35119399 3.52679099 2.21443452 5.02879485 2.125 9.1875 C2.10695313 10.27417969 2.08890625 11.36085938 2.0703125 12.48046875 C2.03550781 13.72763672 2.03550781 13.72763672 2 15 C1.67 15 1.34 15 1 15 C0.7834375 13.63875 0.7834375 13.63875 0.5625 12.25 C0.09816667 9.1721709 0.09816667 9.1721709 -0.625 6.9375 C-1.1118389 4.42216567 -0.61560812 2.46243248 0 0 Z " fill="#CA3268" transform="translate(323,449)"/>
<path d="M0 0 C0 0.33 0 0.66 0 1 C-1.04800781 1.30744141 -1.04800781 1.30744141 -2.1171875 1.62109375 C-3.02726563 1.89050781 -3.93734375 2.15992188 -4.875 2.4375 C-5.77992187 2.70433594 -6.68484375 2.97117187 -7.6171875 3.24609375 C-9.98275381 3.92613826 -9.98275381 3.92613826 -12 5 C-11.66260373 2.469528 -11.3938922 1.3181437 -9.375 -0.3125 C-6.05401826 -1.27383682 -3.35382798 -0.64496692 0 0 Z " fill="#F7EEF1" transform="translate(133,346)"/>
<path d="M0 0 C0.66 0.33 1.32 0.66 2 1 C1.34 5.95 0.68 10.9 0 16 C-0.33 16 -0.66 16 -1 16 C-1.02685095 13.52076199 -1.04676547 11.0418116 -1.0625 8.5625 C-1.07506836 7.50192383 -1.07506836 7.50192383 -1.08789062 6.41992188 C-1.09653588 4.61306441 -1.05220011 2.80612397 -1 1 C-0.67 0.67 -0.34 0.34 0 0 Z " fill="#C6376B" transform="translate(270,272)"/>
<path d="M0 0 C2.0625 1.6875 2.0625 1.6875 4 4 C3.75 6.75 3.75 6.75 3 9 C1.68 8.67 0.36 8.34 -1 8 C-0.67 5.36 -0.34 2.72 0 0 Z " fill="#FC6795" transform="translate(498,358)"/>
<path d="M0 0 C0.66 0.33 1.32 0.66 2 1 C2 3.31 2 5.62 2 8 C1.34 8 0.68 8 0 8 C-0.33 9.32 -0.66 10.64 -1 12 C-1.08159574 7.83861737 -0.98248524 4.0527516 0 0 Z " fill="#F5F0F5" transform="translate(203,304)"/>
<path d="M0 0 C0.33 0 0.66 0 1 0 C1 3.3 1 6.6 1 10 C0.34 10 -0.32 10 -1 10 C-2.15837626 5.94568308 -1.83691257 3.78187881 0 0 Z " fill="#CC2E66" transform="translate(348,291)"/>
<path d="M0 0 C3 4 3 4 2.75 6.125 C2 8 2 8 1 10 C0.34 10 -0.32 10 -1 10 C-0.67 6.7 -0.34 3.4 0 0 Z " fill="#CF3E71" transform="translate(428,126)"/>
<path d="M0 0 C0.66 0.33 1.32 0.66 2 1 C-0.46153846 5.8 -0.46153846 5.8 -3.1875 6.8125 C-3.785625 6.874375 -4.38375 6.93625 -5 7 C-4.60196439 4.11424181 -4.20990931 3.17810487 -1.9375 1.25 C-1.298125 0.8375 -0.65875 0.425 0 0 Z " fill="#D0366C" transform="translate(245,113)"/>
<path d="M0 0 C0.33 0.99 0.66 1.98 1 3 C-1.64 4.98 -4.28 6.96 -7 9 C-7 8.01 -7 7.02 -7 6 C-6.34 6 -5.68 6 -5 6 C-4.9175 5.38125 -4.835 4.7625 -4.75 4.125 C-4 2 -4 2 -1.9375 0.75 C-1.298125 0.5025 -0.65875 0.255 0 0 Z " fill="#F6EAF1" transform="translate(384,111)"/>
<path d="M0 0 C1.32 0.66 2.64 1.32 4 2 C2.35 3.65 0.7 5.3 -1 7 C-1.04254356 5.00045254 -1.04080783 2.99958364 -1 1 C-0.67 0.67 -0.34 0.34 0 0 Z " fill="#C8346A" transform="translate(230,490)"/>
<path d="M0 0 C0.33 0 0.66 0 1 0 C0.67 2.64 0.34 5.28 0 8 C-1.32 7.67 -2.64 7.34 -4 7 C-4 5.35 -4 3.7 -4 2 C-3.67 2.99 -3.34 3.98 -3 5 C-2.34 5 -1.68 5 -1 5 C-0.67 3.35 -0.34 1.7 0 0 Z " fill="#FCEDF5" transform="translate(406,331)"/>
<path d="M0 0 C0.33 0 0.66 0 1 0 C1 2.64 1 5.28 1 8 C1.66 8 2.32 8 3 8 C1.79618552 10.49361571 0.54571278 12.68143083 -1 15 C-0.67 10.05 -0.34 5.1 0 0 Z " fill="#CE3068" transform="translate(212,256)"/>
<path d="M0 0 C3.465 1.485 3.465 1.485 7 3 C6.34 3.66 5.68 4.32 5 5 C1.375 4.625 1.375 4.625 -2 4 C-1.33333333 2.66666667 -0.66666667 1.33333333 0 0 Z " fill="#F8E3ED" transform="translate(194,498)"/>
<path d="M0 0 C0.33 0.99 0.66 1.98 1 3 C-2.625 6 -2.625 6 -6 6 C-6.33 6.66 -6.66 7.32 -7 8 C-7.66 7.34 -8.32 6.68 -9 6 C-6.03 4.02 -3.06 2.04 0 0 Z " fill="#F7E2EC" transform="translate(373,493)"/>
<path d="M0 0 C0.99 0.33 1.98 0.66 3 1 C3.6875 3.0625 3.6875 3.0625 4 5 C1.525 4.01 1.525 4.01 -1 3 C-0.67 2.01 -0.34 1.02 0 0 Z M-3 1 C-2.34 2.32 -1.68 3.64 -1 5 C-1.66 5 -2.32 5 -3 5 C-3 3.68 -3 2.36 -3 1 Z " fill="#F7F1F3" transform="translate(107,387)"/>
<path d="M0 0 C0.66 0.33 1.32 0.66 2 1 C2.1875 4.375 2.1875 4.375 2 8 C1.01 8.66 0.02 9.32 -1 10 C-0.67 6.7 -0.34 3.4 0 0 Z " fill="#F6E6EE" transform="translate(265,316)"/>
<path d="M0 0 C0.66 0 1.32 0 2 0 C2 2.64 2 5.28 2 8 C1.01 8 0.02 8 -1 8 C-0.67 5.36 -0.34 2.72 0 0 Z " fill="#D1356C" transform="translate(345,304)"/>
<path d="M0 0 C-2.64 1.98 -5.28 3.96 -8 6 C-8 2 -8 2 -6.25 0.1875 C-4 -1 -4 -1 0 0 Z " fill="#F8EFF2" transform="translate(121,210)"/>
<path d="M0 0 C2.46800047 1.15173355 4.04783565 2.04783565 6 4 C5.625 6.125 5.625 6.125 5 8 C2.5 5.6875 2.5 5.6875 0 3 C0 2.01 0 1.02 0 0 Z " fill="#F4E9EF" transform="translate(281,114)"/>
<path d="M0 0 C0.185625 0.9590625 0.185625 0.9590625 0.375 1.9375 C0.684375 2.9584375 0.684375 2.9584375 1 4 C1.66 4.33 2.32 4.66 3 5 C1.68 6.32 0.36 7.64 -1 9 C-2.60031344 5.79937313 -1.03173691 3.27728194 0 0 Z " fill="#F6DBE9" transform="translate(380,477)"/>
<path d="M0 0 C0.66 0 1.32 0 2 0 C1.67 2.64 1.34 5.28 1 8 C0.34 8 -0.32 8 -1 8 C-1.125 2.25 -1.125 2.25 0 0 Z " fill="#CE2F68" transform="translate(382,454)"/>
<path d="M0 0 C1.32 0.33 2.64 0.66 4 1 C3.67 1.99 3.34 2.98 3 4 C3.66 4.33 4.32 4.66 5 5 C5 5.66 5 6.32 5 7 C2.525 6.01 2.525 6.01 0 5 C0 3.33333333 0 1.66666667 0 0 Z " fill="#F66791" transform="translate(122,257)"/>
<path d="M0 0 C0.33 0 0.66 0 1 0 C1.75 2.6875 1.75 2.6875 2 6 C0.0625 8.875 0.0625 8.875 -2 11 C-1.85892253 9.54119891 -1.71197585 8.08296449 -1.5625 6.625 C-1.48128906 5.81289062 -1.40007812 5.00078125 -1.31640625 4.1640625 C-1 2 -1 2 0 0 Z " fill="#C74272" transform="translate(373,126)"/>
<path d="M0 0 C0.99 0 1.98 0 3 0 C2.67 3.3 2.34 6.6 2 10 C1.67 10 1.34 10 1 10 C1 8.02 1 6.04 1 4 C0.34 3.67 -0.32 3.34 -1 3 C-0.67 2.01 -0.34 1.02 0 0 Z " fill="#F8E4EC" transform="translate(221,184)"/>
<path d="M0 0 C0.33 0 0.66 0 1 0 C1.33 3.63 1.66 7.26 2 11 C1.01 11 0.02 11 -1 11 C-0.67 7.37 -0.34 3.74 0 0 Z " fill="#C94473" transform="translate(225,173)"/>
</svg>
